<?xml version="1.0" encoding="UTF-8"?>
<svg width="120px" height="120px" viewBox="0 0 1200 1200" version="1.1" xmlns="http://www.w3.org/2000/svg" xmlns:xlink="http://www.w3.org/1999/xlink">
    <!-- Generator: Sketch 63 (92445) - https://sketch.com -->
    <title>erblotse-logo-vertical</title>
    <desc>Created with Sketch.</desc>
    <g id="erblotse-logo-vertical" stroke="none" stroke-width="1" fill="none" fill-rule="evenodd">
        <g transform="translate(144.000000, 312.000000)" fill="#040045" fill-rule="nonzero">
            <path d="M77.4135665,494.845697 L77.4135665,468.994065 L30.9654266,468.994065 L30.9654266,448.169139 L69.1321152,448.169139 L69.1321152,422.317507 L30.9654266,422.317507 L30.9654266,404.005935 L75.613251,404.005935 L75.613251,378.154303 L0,378.154303 L0,494.845697 L77.4135665,494.845697 Z M146.065597,494.845697 L146.065597,455.709199 L157.94768,455.709199 L178.111213,494.845697 L212.677271,494.845697 L187.292822,449.605341 C193.173853,446.373887 197.794663,441.945598 201.155252,436.320475 C204.515841,430.695351 206.196135,423.873393 206.196135,415.854599 C206.196135,402.330366 201.905383,392.665925 193.323879,386.861276 C184.742375,381.056627 173.430393,378.154303 159.387932,378.154303 L159.387932,378.154303 L115.100171,378.154303 L115.100171,494.845697 L146.065597,494.845697 Z M157.227554,431.293769 L146.065597,431.293769 L146.065597,402.569733 L157.227554,402.569733 C163.588668,402.569733 168.299494,403.557122 171.36003,405.531899 C174.420567,407.506677 175.950835,410.947577 175.950835,415.854599 C175.950835,420.881306 174.360556,424.711177 171.179999,427.344214 C167.999441,429.97725 163.348626,431.293769 157.227554,431.293769 L157.227554,431.293769 Z M289.25069,494.845697 C302.693046,494.845697 313.734981,491.973294 322.376495,486.228487 C331.01801,480.48368 335.338767,471.866469 335.338767,460.376855 C335.338767,453.076162 333.478441,447.15183 329.757789,442.603858 C326.037137,438.055885 321.176285,434.884273 315.175233,433.089021 L315.175233,433.089021 L315.175233,432.37092 C319.495991,430.575668 323.036611,427.254451 325.797095,422.40727 C328.557579,417.560089 329.93782,412.503462 329.93782,407.237389 C329.93782,396.585559 325.977126,389.07542 318.055738,384.706973 C310.13435,380.338526 299.332457,378.154303 285.650059,378.154303 L285.650059,378.154303 L243.522676,378.154303 L243.522676,494.845697 L289.25069,494.845697 Z M284.929933,423.753709 L274.488103,423.753709 L274.488103,401.851632 L284.929933,401.851632 C289.970816,401.851632 293.691468,402.629575 296.091889,404.18546 C298.49231,405.741345 299.69252,408.31454 299.69252,411.905045 C299.69252,415.615232 298.462304,418.517557 296.001873,420.612018 C293.541442,422.706479 289.850795,423.753709 284.929933,423.753709 L284.929933,423.753709 Z M287.090312,471.148368 L274.488103,471.148368 L274.488103,446.373887 L287.090312,446.373887 C293.331405,446.373887 297.892205,447.301434 300.772709,449.156528 C303.653214,451.011622 305.093467,454.03363 305.093467,458.222552 C305.093467,466.839763 299.092415,471.148368 287.090312,471.148368 L287.090312,471.148368 Z M443.957802,494.845697 L443.957802,468.994065 L399.670041,468.994065 L399.670041,378.154303 L368.704614,378.154303 L368.704614,494.845697 L443.957802,494.845697 Z M521.251347,497 C532.05324,497 541.564907,494.576409 549.786348,489.729228 C558.007789,484.882047 564.368904,477.850643 568.869692,468.635015 C573.370481,459.419387 575.620876,448.52819 575.620876,435.961424 C575.620876,423.394659 573.370481,412.623145 568.869692,403.646884 C564.368904,394.670623 558.007789,387.818744 549.786348,383.091246 C541.564907,378.363749 532.05324,376 521.251347,376 C510.449454,376 500.937788,378.333828 492.716347,383.001484 C484.494906,387.669139 478.133791,394.521019 473.633002,403.557122 C469.132214,412.593225 466.881819,423.394659 466.881819,435.961424 C466.881819,448.52819 469.132214,459.419387 473.633002,468.635015 C478.133791,477.850643 484.494906,484.882047 492.716347,489.729228 C500.937788,494.576409 510.449454,497 521.251347,497 Z M521.251347,470.430267 C514.290128,470.430267 508.76916,467.348417 504.688445,461.184718 C500.60773,455.021019 498.567372,446.613254 498.567372,435.961424 C498.567372,425.429278 500.577724,417.230959 504.598429,411.366469 C508.619134,405.501978 514.170106,402.569733 521.251347,402.569733 C528.332588,402.569733 533.883561,405.501978 537.904266,411.366469 C541.92497,417.230959 543.935323,425.429278 543.935323,435.961424 C543.935323,446.613254 541.894965,455.021019 537.81425,461.184718 C533.733535,467.348417 528.212567,470.430267 521.251347,470.430267 Z M659.395557,494.845697 L659.395557,404.005935 L690.360983,404.005935 L690.360983,378.154303 L597.464704,378.154303 L597.464704,404.005935 L628.43013,404.005935 L628.43013,494.845697 L659.395557,494.845697 Z M756.13251,497 C765.49415,497 773.625575,495.29451 780.526785,491.883531 C787.427994,488.472552 792.708919,483.92458 796.369561,478.239614 C800.030202,472.554649 801.860523,466.361029 801.860523,459.658754 C801.860523,444.339268 794.239188,433.687438 778.996516,427.703264 L778.996516,427.703264 L764.774024,422.137982 C761.413435,420.941147 758.352899,419.744313 755.592415,418.547478 C752.831931,417.350643 750.791574,416.153808 749.471342,414.956973 C748.151111,413.760138 747.490995,412.264095 747.490995,410.468843 C747.490995,407.95549 748.571184,406.010633 750.731563,404.634273 C752.891942,403.257913 755.892467,402.569733 759.733141,402.569733 C763.933877,402.569733 767.864566,403.257913 771.525207,404.634273 C775.185849,406.010633 779.056527,408.135015 783.137242,411.007418 L783.137242,411.007418 L798.619955,391.618694 C793.459051,386.472305 787.427994,382.582591 780.526785,379.949555 C773.625575,377.316518 766.69436,376 759.733141,376 C751.451689,376 743.98038,377.615727 737.319213,380.847181 C730.658045,384.078635 725.467136,388.477003 721.746484,394.042285 C718.025831,399.607567 716.165505,405.681503 716.165505,412.264095 C716.165505,420.163205 718.355889,426.86548 722.736657,432.37092 C727.117425,437.87636 732.788419,442.00544 739.749638,444.75816 L739.749638,444.75816 L754.332194,450.862018 C757.452741,452.058853 760.273235,453.225767 762.793677,454.36276 C765.314119,455.499753 767.174445,456.636746 768.374655,457.773739 C769.574865,458.910732 770.17497,460.376855 770.17497,462.172107 C770.17497,467.677547 765.734192,470.430267 756.852636,470.430267 C752.6519,470.430267 748.0911,469.383037 743.170238,467.288576 C738.249376,465.194115 733.688576,462.471316 729.48784,459.120178 L729.48784,459.120178 L711.844748,480.304154 C717.965821,485.809594 724.957046,489.968595 732.818424,492.781157 C740.679801,495.593719 748.451163,497 756.13251,497 Z M913,494.845697 L913,468.994065 L866.55186,468.994065 L866.55186,448.169139 L904.718549,448.169139 L904.718549,422.317507 L866.55186,422.317507 L866.55186,404.005935 L911.199685,404.005935 L911.199685,378.154303 L835.586434,378.154303 L835.586434,494.845697 L913,494.845697 Z" id="ERBLOTSE"></path>
            <path d="M538,163.307418 L538,172.245409 C538,175.224407 536.238405,177.922202 533.509064,179.123047 L520.44319,184.868748 L520.444443,240.980742 C520.444443,244.342742 518.208991,247.295733 514.970507,248.211713 L407.129236,278.713768 C403.131147,279.844597 398.972298,277.523898 397.840183,273.530343 C397.651339,272.864182 397.555557,272.17515 397.555557,271.482797 L397.553048,184.868748 L384.490936,179.123047 C381.761595,177.922202 380,175.224407 380,172.245409 L380,163.307418 L538,163.307418 Z M538,133.246311 L538,148.276864 L380,148.276864 L380,133.246311 L538,133.246311 Z M460.8412,1.17056381 L461.369233,1.53826333 L531.346462,54.8149838 C532.840138,55.9521853 533.716789,57.7206322 533.716789,59.5965964 C533.716789,62.7325847 531.313075,65.3077928 528.245595,65.5842479 L527.697742,65.608818 L518.812886,65.6083678 L518.814286,117.964335 L502.261905,117.964335 L502.261905,73.9999644 C502.261905,69.2268057 498.388102,65.3573959 493.609524,65.3573959 C489.030052,65.3573959 485.281532,68.9110727 484.977104,73.4082411 L484.957143,73.9999644 L484.957143,117.964335 L467.652381,117.964335 L467.652381,73.9999644 C467.652381,69.2268057 463.778578,65.3573959 459,65.3573959 C454.420528,65.3573959 450.672008,68.9110727 450.36758,73.4082411 L450.347619,73.9999644 L450.347619,117.964335 L433.042857,117.964335 L433.042857,73.9999644 C433.042857,69.2268057 429.169055,65.3573959 424.390476,65.3573959 C419.811004,65.3573959 416.062484,68.9110727 415.758056,73.4082411 L415.738095,73.9999644 L415.738095,117.964335 L398.433333,117.964335 L398.431934,65.6083678 L389.56637,65.608818 C387.94576,65.608818 386.402788,64.9566204 385.277493,63.8149465 L384.875748,63.3641926 C382.915138,60.9287863 383.164176,57.4331759 385.360022,55.2955899 L385.794496,54.9112973 L452.093489,1.6586551 C454.621346,-0.37177027 458.143395,-0.542334652 460.8412,1.17056381 Z" id="design-mark"></path>
        </g>
    </g>
</svg>
